Fly_normalized_Motion_pl02
version=1
nRows=14
nColumns=43
inDegrees=yes
endheader
time		pelvis_tilt		pelvis_list		pelvis_rotation		pelvis_tx		pelvis_ty		pelvis_tz		hip_flexion_r		hip_adduction_r		hip_rotation_r		knee_angle_r		ankle_angle_r		subtalar_angle_r		mtp_angle_r		hip_flexion_l		hip_adduction_l		hip_rotation_l		knee_angle_l		ankle_angle_l		subtalar_angle_l		mtp_angle_l		lumbar_extension		lumbar_bending		lumbar_rotation		neck_flexion		neck_lateral_bending		neck_rotation		arm_flex_r		arm_add_r		arm_rot_r		elbow_flex_r		pro_sup_r		wrist_flex_r		wrist_dev_r		hand_finger_flex_r		arm_flex_l		arm_add_l		arm_rot_l		elbow_flex_l		pro_sup_l		wrist_flex_l		wrist_dev_l		hand_finger_flex_l		
3.370000		4.153761		-17.399864		91.130183		-0.022735		1.638203		1.098794		68.557730		-3.031485		-10.765866		-85.386116		-7.613488		6.421949		31.323882		58.618342		-11.094359		0.743957		-83.694123		-1.262055		-2.103962		20.002364		-34.396388		2.788846		5.491976		8.710730		4.106366		-2.295228		48.396489		-17.025951		-0.241140		51.929986		116.177362		1.695051		-5.349750		-42.485024		52.114198		-30.065423		11.060894		62.966529		126.500118		-2.825515		3.701954		-24.674792		
3.374015		4.360329		-17.241304		91.009918		-0.022726		1.633853		1.091606		68.045041		-2.743431		-10.992072		-83.648492		-8.316816		6.582536		31.298365		58.561075		-11.348699		0.600373		-82.346524		-1.771767		-2.275766		19.799655		-34.563587		2.888658		5.871258		8.785141		4.131565		-2.357524		46.598697		-17.177141		-1.452396		51.019564		116.258059		1.319942		-5.242320		-42.531985		50.384215		-30.881522		11.145571		62.988627		126.833872		-2.538507		3.760073		-24.629041		
3.378030		4.549290		-17.070577		90.914301		-0.022733		1.629280		1.084298		67.502643		-2.446710		-11.157633		-81.883575		-8.953369		6.765145		31.274841		58.469212		-11.561785		0.481308		-81.019249		-2.302534		-2.443055		19.591073		-34.727281		3.001086		6.230254		8.849149		4.168269		-2.430391		44.779869		-17.319103		-2.687489		50.110963		116.342263		0.937423		-5.137392		-42.577816		48.613632		-31.656221		11.186064		63.024345		127.211506		-2.249051		3.801001		-24.573433		
3.382045		5.156849		-16.474227		90.902127		-0.022267		1.625662		1.076479		66.278480		-1.774194		-11.645535		-79.846144		-9.676204		6.813647		31.157470		57.872793		-12.212261		0.494482		-79.455794		-3.347330		-3.146696		18.553728		-35.556416		3.392780		6.819485		9.481512		4.200643		-2.464393		43.014542		-16.880265		-5.494263		49.204897		117.756409		0.509998		-5.652703		-42.083287		46.347733		-32.203250		9.765593		63.936295		129.755685		-0.937848		3.727418		-24.256943		
3.386061		5.200174		-16.248776		91.022881		-0.022820		1.620629		1.068771		65.651764		-1.732301		-11.721514		-78.180896		-9.997083		7.199626		31.123566		57.579599		-12.068581		0.399449		-77.953270		-3.790395		-3.074173		18.241309		-35.698554		3.503114		6.960798		9.216805		4.258153		-2.567745		41.137631		-17.254790		-6.502636		48.312007		118.072135		0.326826		-5.466509		-42.006820		44.470412		-32.832041		9.646300		64.084796		130.445231		-0.536443		3.587744		-24.161243		
3.390076		5.215040		-15.711833		91.233805		-0.023429		1.615267		1.060465		64.715545		-1.748962		-11.836071		-76.738058		-10.183087		8.007313		31.090506		57.098741		-11.902316		0.336847		-76.785750		-4.714780		-2.919662		17.884508		-36.087308		3.648586		6.868530		8.818864		4.497867		-2.891766		39.122931		-17.009591		-8.417452		47.572680		118.104094		-0.313833		-5.148638		-42.170763		42.231071		-33.611115		9.129488		64.470569		131.238659		-0.412894		3.213137		-24.132684		
3.394091		5.237458		-14.987147		91.553336		-0.024398		1.610365		1.051952		63.522305		-1.845409		-11.961057		-75.266360		-10.032113		8.659394		31.029357		56.294016		-11.646669		0.265457		-75.422123		-5.534526		-2.932348		17.327741		-36.751431		3.885731		6.741391		8.825914		4.544186		-3.044984		37.238714		-16.958549		-10.128857		46.798132		118.623942		-0.541667		-4.905555		-42.124461		39.946064		-34.173233		8.229483		64.944432		132.753523		-0.117795		2.752263		-23.991280		
3.398106		5.230325		-14.668195		91.754369		-0.025312		1.604492		1.043783		62.808187		-1.862296		-11.943890		-73.812568		-9.962775		8.934553		31.003189		55.851073		-11.403143		0.119731		-74.007997		-5.955570		-2.850065		17.092951		-36.882018		4.037093		6.811976		8.750801		4.532238		-3.104289		35.311581		-17.400411		-10.968248		45.842272		118.836065		-0.613797		-4.593974		-42.112346		38.035090		-34.701679		8.084637		64.965545		133.368799		0.060714		2.603621		-23.909921		
3.402121		5.267556		-14.059451		91.928683		-0.025925		1.598841		1.035480		61.707308		-1.794144		-12.027429		-72.319500		-10.286026		9.428071		30.967076		55.226157		-11.321313		-0.029865		-72.800581		-6.931795		-2.666270		16.774295		-37.338694		4.203774		6.798894		8.348620		4.649177		-3.471942		33.268013		-17.326930		-12.530121		45.303126		118.983306		-0.956650		-4.276521		-42.185367		35.668164		-35.408827		7.471247		65.508257		134.254003		-0.098960		2.377129		-23.955896		
3.406136		5.421657		-13.520017		91.987139		-0.026266		1.593464		1.027391		60.589520		-1.540807		-12.139336		-70.592731		-10.567163		9.525210		30.909770		54.509521		-11.391272		-0.127085		-71.319750		-7.615997		-2.541149		16.372653		-37.844949		4.394874		6.977351		8.602599		4.514270		-3.582598		31.456152		-17.376222		-13.860679		44.617606		119.488075		-0.930189		-3.855011		-42.044722		33.338460		-35.935045		6.611453		65.955612		135.503832		-0.138054		2.201626		-23.934508		
3.410152		5.567079		-12.987490		92.040549		-0.026815		1.587752		1.019367		59.451063		-1.362810		-12.317956		-68.865803		-11.063445		9.638205		30.846681		53.830370		-11.476125		-0.302392		-69.935046		-8.242912		-2.343922		15.961309		-38.298574		4.596321		7.174980		8.599329		4.427240		-3.689480		29.529406		-17.534309		-15.037289		44.079489		120.094254		-0.839542		-3.486946		-41.870587		30.935121		-36.541888		5.842377		66.542797		136.738368		-0.098663		1.962632		-23.874988		
3.414167		5.679291		-12.488624		92.086917		-0.027124		1.581193		1.011141		58.391899		-1.153089		-12.445234		-67.289096		-11.827739		9.798366		30.795275		53.273180		-11.573205		-0.426867		-68.756446		-9.094414		-1.853518		15.641688		-38.582966		4.726306		7.335260		8.122917		4.560365		-4.074984		27.288677		-17.622363		-16.229067		43.828568		120.470036		-0.956293		-3.254252		-41.803452		28.378175		-37.348789		5.223084		67.228969		137.374076		-0.176800		1.760750		-23.890729		
3.418182		5.681566		-12.227406		92.197410		-0.027904		1.574184		1.002877		57.659412		-1.118219		-12.442754		-65.804877		-11.951376		9.871072		30.771913		52.805017		-11.392178		-0.519727		-67.385692		-9.509149		-1.566591		15.490965		-38.543162		4.861500		7.560672		7.952313		4.571029		-4.217116		25.107739		-18.031290		-16.951374		43.133029		120.643188		-0.993567		-2.997290		-41.767323		26.263798		-37.927172		5.117624		67.424355		137.621893		-0.145250		1.666347		-23.879187		
3.422197		5.801092		-11.229888		92.492286		-0.028566		1.568375		0.993967		55.986877		-1.011420		-12.606238		-64.227256		-12.241416		9.948307		30.689206		51.597644		-11.291615		-0.428609		-66.026485		-10.327862		-0.761922		15.064194		-39.474868		5.146679		7.451200		8.206399		4.494354		-4.647428		22.962112		-17.799445		-18.564756		43.120061		121.345528		-0.809700		-2.930976		-41.490776		23.175336		-38.568612		3.571461		68.617709		138.122451		-0.350847		1.503268		-23.930105		
